<svg width="52" height="60" viewBox="0 0 52 60" fill="none" xmlns="http://www.w3.org/2000/svg">
<path d="M11.293 0.175743C9.69921 0.445274 8.58593 0.820274 7.25 1.53512C2.41015 4.1484 -0.238282 9.49215 0.628905 14.8711C1.0625 17.5195 2.1875 19.7461 4.10937 21.75C5.19922 22.8867 6.34765 23.707 7.85937 24.4336C9.4414 25.1953 12.0781 25.8281 11.9023 25.3945C11.8672 25.3242 11.1992 23.7539 10.4141 21.9375C9.6289 20.1093 8.91406 18.2578 8.82031 17.8359C8.35156 15.5742 9.04296 13.289 10.707 11.6484C12.0312 10.3359 13.5547 9.71481 15.4531 9.71481C17.3984 9.71481 18.8984 10.3359 20.2578 11.707C20.9726 12.4218 21.4883 13.1718 22.9648 15.5507L24.8047 18.5039L25.0976 17.8242C26.4922 14.6015 26.4219 10.6523 24.8984 7.44137C24.1836 5.92965 23.6562 5.15621 22.5078 3.9609C19.5781 0.925743 15.3711 -0.503944 11.293 0.175743Z" fill="url(#paint0_linear_101_171)"/>
<path d="M14.2695 14.0625C13.4023 14.5195 12.7578 15.5274 12.7578 16.4063C12.7578 16.9453 13.0039 17.5899 14.9492 22.0664C18.4766 30.2344 21.5234 37.5703 21.7227 38.4258C21.957 39.3516 21.9219 40.8867 21.6641 41.3789C21.1016 42.4688 20.8789 42.4219 17.0586 40.2305C14.7969 38.9414 14.0586 38.6133 12.9688 38.3906C10.3555 37.8516 8.41016 38.5547 7.61328 40.3125C7.02734 41.6016 7.35547 42.1172 9.37109 43.1367C12.1133 44.5078 14.5391 46.1836 19.2031 49.9219C20.8906 51.2813 21.4648 51.5859 23.8555 52.4531C27.5703 53.7891 31.3906 56.0156 34.0859 58.4063C35.1055 59.3086 35.8555 59.7188 36.875 59.9063C37.7188 60.0586 38.8672 59.9063 39.6172 59.5195C40.5781 59.0274 50.6797 52.3594 50.9727 52.0195C51.3594 51.5859 51.6055 50.7656 51.5117 50.2266C51.4766 50.0156 51.207 49.2656 50.9024 48.5625C50.2578 47.0391 49.6016 44.5899 49.4961 43.2891C49.2031 39.5274 48.0313 34.8399 46.332 30.6211C45.7695 29.2149 45.5469 29.0156 44.0234 28.5352C38.6563 26.8359 32.5859 26.5313 26.5625 27.668C26.1172 27.75 25.7422 27.7969 25.7188 27.7617C25.6953 27.7383 23.8906 24.8438 21.7109 21.3399C19.5313 17.8359 17.5859 14.8125 17.3984 14.6133C16.625 13.8399 15.1719 13.582 14.2695 14.0625Z" fill="url(#paint1_linear_101_171)"/>
<defs>
<linearGradient id="paint0_linear_101_171" x1="4.05392" y1="23.749" x2="22.164" y2="1.72517" gradientUnits="userSpaceOnUse">
<stop stop-color="#55A74A"/>
<stop offset="1" stop-color="#308025"/>
</linearGradient>
<linearGradient id="paint1_linear_101_171" x1="13.538" y1="56.7344" x2="46.5417" y2="18.4613" gradientUnits="userSpaceOnUse">
<stop stop-color="#55A74A"/>
<stop offset="1" stop-color="#308025"/>
</linearGradient>
</defs>
</svg>
