<svg width="50" height="50" viewBox="0 0 50 50" fill="none" xmlns="http://www.w3.org/2000/svg">
<path d="M0 10C0 6.2375 1.95 2.3 5 0C5 2.1125 6.725 5 10 5C11.9891 5 13.8968 5.79018 15.3033 7.1967C16.7098 8.60322 17.5 10.5109 17.5 12.5C17.5 13.465 17.3025 14.38 16.97 15.2275C18.8244 16.6992 20.6506 18.2062 22.4475 19.7475L17.2475 24.9475C15.7068 23.15 14.1998 21.3239 12.7275 19.47C11.8597 19.8163 10.9344 19.9961 10 20C4.475 20 0 15.525 0 10ZM30.38 27.12L33.7325 23.7675C35.285 24.5667 37.0039 24.989 38.75 25C41.7337 25 44.5952 23.8147 46.7049 21.705C48.8147 19.5952 50 16.7337 50 13.75C50 11.9375 49.53 10.2475 48.7675 8.7325L40 17.5L35 12.5L43.7675 3.7325C42.215 2.93325 40.4961 2.51101 38.75 2.5C35.7663 2.5 32.9048 3.68526 30.795 5.79505C28.6853 7.90483 27.5 10.7663 27.5 13.75C27.5 15.5625 27.97 17.2525 28.7325 18.7675L2.5 45L7.5 50L24.62 32.88C29.3284 37.7109 34.3179 42.2597 39.5625 46.5025L43.125 49.375L46.875 45.625L44.0025 42.0625C39.7597 36.8179 35.2109 31.8284 30.38 27.12Z" fill="url(#paint0_linear_101_179)"/>
<defs>
<linearGradient id="paint0_linear_101_179" x1="7" y1="3.5" x2="42.5" y2="46.5" gradientUnits="userSpaceOnUse">
<stop stop-color="#55A74A"/>
<stop offset="1" stop-color="#308025"/>
</linearGradient>
</defs>
</svg>
