<svg width="49" height="50" viewBox="0 0 49 50" fill="none" xmlns="http://www.w3.org/2000/svg">
<path d="M24.5 47.5C36.9264 47.5 47 37.4264 47 25C47 12.5736 36.9264 2.5 24.5 2.5C12.0736 2.5 2 12.5736 2 25C2 37.4264 12.0736 47.5 24.5 47.5Z" stroke="url(#paint0_linear_101_161)" stroke-width="4" stroke-linecap="round" stroke-linejoin="round"/>
<path d="M26.72 38.306C25.8587 38.306 25.0733 38.002 24.364 37.394C23.68 36.8113 23.0847 36.0387 22.578 35.076C22.0713 34.1387 21.6407 33.1507 21.286 32.112C20.9313 31.048 20.6527 30.06 20.45 29.148C20.2473 28.236 20.108 27.5393 20.032 27.058C19.8293 26.9313 19.6773 26.8047 19.576 26.678C18.892 28.3247 18.322 29.87 17.866 31.314C17.41 32.758 17.182 33.8727 17.182 34.658C17.182 35.0633 17.258 35.3673 17.41 35.57C17.4607 35.6207 17.486 35.6967 17.486 35.798C17.486 35.9753 17.3467 36.0133 17.068 35.912C16.8653 35.8107 16.574 35.7347 16.194 35.684C15.8393 35.6333 15.5353 35.5573 15.282 35.456C14.8007 35.2027 14.446 34.81 14.218 34.278C13.99 33.7207 13.876 33.0747 13.876 32.34C13.876 31.3267 14.0407 30.174 14.37 28.882C14.6993 27.59 15.1047 26.2853 15.586 24.968C16.0927 23.6253 16.612 22.3713 17.144 21.206C17.676 20.0407 18.1447 19.0527 18.55 18.242C18.9807 17.406 19.272 16.8613 19.424 16.608C19.9053 15.8733 20.488 15.354 21.172 15.05C21.856 14.7207 22.5907 14.556 23.376 14.556C25.0733 14.556 25.7953 14.708 25.542 15.012C24.4527 16.4053 23.4267 18.0647 22.464 19.99C21.5013 21.89 20.6907 23.7647 20.032 25.614C20.184 25.766 20.4627 25.842 20.868 25.842C21.4507 25.842 22.0967 25.5253 22.806 24.892C23.5407 24.2587 24.2247 23.448 24.858 22.46C25.5167 21.4467 26.0487 20.3827 26.454 19.268C26.8847 18.1533 27.1 17.1147 27.1 16.152C27.1 15.1893 26.834 14.404 26.302 13.796C25.77 13.1627 24.8707 12.846 23.604 12.846C22.768 12.846 21.8053 12.9853 20.716 13.264C19.652 13.5427 18.6007 13.9607 17.562 14.518C16.5233 15.0753 15.624 15.7847 14.864 16.646C14.104 17.482 13.61 18.4827 13.382 19.648C13.2807 19.6227 13.0273 19.5593 12.622 19.458C12.2167 19.3313 11.824 19.1413 11.444 18.888C11.0893 18.6093 10.912 18.2547 10.912 17.824C10.912 16.532 11.482 15.43 12.622 14.518C13.762 13.606 15.32 12.9093 17.296 12.428C19.272 11.9213 21.5013 11.668 23.984 11.668C26.5427 11.668 28.43 12.162 29.646 13.15C30.862 14.1127 31.47 15.3413 31.47 16.836C31.47 18.052 31.1027 19.3187 30.368 20.636C29.6587 21.9533 28.6833 23.144 27.442 24.208C26.226 25.272 24.8453 26.0447 23.3 26.526C23.4773 26.906 23.7687 27.4633 24.174 28.198C24.6047 28.9327 25.086 29.7433 25.618 30.63C26.1753 31.4913 26.7453 32.3147 27.328 33.1C27.9107 33.86 28.468 34.4807 29 34.962C29.532 35.418 29.988 35.5953 30.368 35.494C30.4947 35.4687 30.4947 35.5953 30.368 35.874C30.2667 36.1527 30.0513 36.4693 29.722 36.824C29.418 37.204 29.0127 37.546 28.506 37.85C27.9993 38.154 27.404 38.306 26.72 38.306ZM33.6256 35.217C32.3649 35.217 31.3212 34.845 30.4946 34.101C29.6679 33.357 29.2546 32.3237 29.2546 31.001C29.2546 30.5463 29.3062 30.071 29.4096 29.575C29.5129 29.079 29.6782 28.6553 29.9056 28.304C30.1329 27.9527 30.4326 27.777 30.8046 27.777C31.0319 27.777 31.1972 27.8493 31.3006 27.994C31.5486 27.5187 31.8172 27.0433 32.1066 26.568C32.3959 26.0927 32.6852 25.607 32.9746 25.111C33.3052 24.5737 33.6876 23.9847 34.1216 23.344C34.5762 22.6827 35.0929 22.104 35.6716 21.608C36.2502 21.0913 36.8806 20.802 37.5626 20.74C37.6452 20.7193 37.7279 20.709 37.8106 20.709C37.9139 20.709 38.0069 20.709 38.0896 20.709C38.3169 20.709 38.5546 20.7193 38.8026 20.74C39.0506 20.7607 39.2366 20.7813 39.3606 20.802C39.4019 20.8227 39.4329 20.8847 39.4536 20.988C39.4742 21.0913 39.4226 21.143 39.2986 21.143C39.2159 21.143 39.0506 21.205 38.8026 21.329C38.5546 21.4323 38.4099 21.6907 38.3686 22.104C38.3272 23.5507 38.2342 24.9973 38.0896 26.444C37.9656 27.8907 37.7692 29.0997 37.5006 30.071C37.3766 30.567 37.1802 31.1043 36.9116 31.683C36.6429 32.2617 36.3226 32.7783 35.9506 33.233C35.5786 33.6877 35.1859 33.9977 34.7726 34.163C35.1859 34.163 35.6199 34.039 36.0746 33.791C36.5499 33.5223 36.9839 33.202 37.3766 32.83C37.7899 32.458 38.0999 32.1273 38.3066 31.838C38.7612 31.1973 39.1746 30.5257 39.5466 29.823C39.9392 29.0997 40.2286 28.5417 40.4146 28.149C40.4766 28.0457 40.5489 27.994 40.6316 27.994C40.7349 27.994 40.8279 28.056 40.9106 28.18C40.9932 28.304 41.0346 28.4383 41.0346 28.583C41.0346 28.6243 41.0242 28.6657 41.0036 28.707C41.0036 28.7483 40.9932 28.7897 40.9726 28.831C40.6006 29.575 40.1872 30.3293 39.7326 31.094C39.2986 31.838 38.7922 32.5303 38.2136 33.171C37.6349 33.791 36.9736 34.287 36.2296 34.659C35.4856 35.031 34.6176 35.217 33.6256 35.217ZM31.6106 33.264C31.8379 33.264 32.0652 33.1917 32.2926 33.047C32.5199 32.9023 32.7059 32.675 32.8506 32.365C33.1606 31.683 33.4396 30.8977 33.6876 30.009C33.9356 29.1203 34.1526 28.242 34.3386 27.374C34.5246 26.4853 34.6796 25.7 34.8036 25.018C34.9482 24.3153 35.0516 23.809 35.1136 23.499C34.8036 23.871 34.4212 24.398 33.9666 25.08C33.5326 25.762 33.1089 26.444 32.6956 27.126C32.3029 27.808 32.0032 28.3557 31.7966 28.769C31.8172 29.2443 31.6312 29.668 31.2386 30.04C30.8459 30.412 30.5049 30.7943 30.2156 31.187V31.528C30.2156 31.6107 30.2156 31.714 30.2156 31.838C30.2362 31.962 30.2569 32.0757 30.2776 32.179C30.3809 32.5097 30.5566 32.7783 30.8046 32.985C31.0732 33.171 31.3419 33.264 31.6106 33.264Z" fill="url(#paint1_linear_101_161)"/>
<defs>
<linearGradient id="paint0_linear_101_161" x1="8.3" y1="5.65" x2="40.25" y2="44.35" gradientUnits="userSpaceOnUse">
<stop stop-color="#55A74A"/>
<stop offset="1" stop-color="#308025"/>
</linearGradient>
<linearGradient id="paint1_linear_101_161" x1="14.06" y1="5.22" x2="46.1478" y2="29.7231" gradientUnits="userSpaceOnUse">
<stop stop-color="#55A74A"/>
<stop offset="1" stop-color="#308025"/>
</linearGradient>
</defs>
</svg>
