<svg width="1440" height="1087" viewBox="0 0 1440 1087" fill="none" xmlns="http://www.w3.org/2000/svg">
<path fill-rule="evenodd" clip-rule="evenodd" d="M1272 1037C1272 1038.1 1271.1 1039 1270 1039C1268.9 1039 1268 1038.1 1268 1037C1268 1035.9 1268.9 1035 1270 1035C1271.1 1035 1272 1035.9 1272 1037ZM1270 1055C1271.1 1055 1272 1054.1 1272 1053C1272 1051.9 1271.1 1051 1270 1051C1268.9 1051 1268 1051.9 1268 1053C1268 1054.1 1268.9 1055 1270 1055ZM1286 1055C1287.1 1055 1288 1054.1 1288 1053C1288 1051.9 1287.1 1051 1286 1051C1284.9 1051 1284 1051.9 1284 1053C1284 1054.1 1284.9 1055 1286 1055ZM1304 1053C1304 1054.1 1303.1 1055 1302 1055C1300.9 1055 1300 1054.1 1300 1053C1300 1051.9 1300.9 1051 1302 1051C1303.1 1051 1304 1051.9 1304 1053ZM1318 1055C1319.1 1055 1320 1054.1 1320 1053C1320 1051.9 1319.1 1051 1318 1051C1316.9 1051 1316 1051.9 1316 1053C1316 1054.1 1316.9 1055 1318 1055ZM1336 1053C1336 1054.1 1335.1 1055 1334 1055C1332.9 1055 1332 1054.1 1332 1053C1332 1051.9 1332.9 1051 1334 1051C1335.1 1051 1336 1051.9 1336 1053ZM1350 1055C1351.1 1055 1352 1054.1 1352 1053C1352 1051.9 1351.1 1051 1350 1051C1348.9 1051 1348 1051.9 1348 1053C1348 1054.1 1348.9 1055 1350 1055ZM1286 1039C1287.1 1039 1288 1038.1 1288 1037C1288 1035.9 1287.1 1035 1286 1035C1284.9 1035 1284 1035.9 1284 1037C1284 1038.1 1284.9 1039 1286 1039ZM1304 1037C1304 1038.1 1303.1 1039 1302 1039C1300.9 1039 1300 1038.1 1300 1037C1300 1035.9 1300.9 1035 1302 1035C1303.1 1035 1304 1035.9 1304 1037ZM1318 1039C1319.1 1039 1320 1038.1 1320 1037C1320 1035.9 1319.1 1035 1318 1035C1316.9 1035 1316 1035.9 1316 1037C1316 1038.1 1316.9 1039 1318 1039ZM1336 1037C1336 1038.1 1335.1 1039 1334 1039C1332.9 1039 1332 1038.1 1332 1037C1332 1035.9 1332.9 1035 1334 1035C1335.1 1035 1336 1035.9 1336 1037ZM1350 1039C1351.1 1039 1352 1038.1 1352 1037C1352 1035.9 1351.1 1035 1350 1035C1348.9 1035 1348 1035.9 1348 1037C1348 1038.1 1348.9 1039 1350 1039ZM1172 1055C1173.1 1055 1174 1054.1 1174 1053C1174 1051.9 1173.1 1051 1172 1051C1170.9 1051 1170 1051.9 1170 1053C1170 1054.1 1170.9 1055 1172 1055ZM1188 1055C1189.1 1055 1190 1054.1 1190 1053C1190 1051.9 1189.1 1051 1188 1051C1186.9 1051 1186 1051.9 1186 1053C1186 1054.1 1186.9 1055 1188 1055ZM1206 1053C1206 1054.1 1205.1 1055 1204 1055C1202.9 1055 1202 1054.1 1202 1053C1202 1051.9 1202.9 1051 1204 1051C1205.1 1051 1206 1051.9 1206 1053ZM1220 1055C1221.1 1055 1222 1054.1 1222 1053C1222 1051.9 1221.1 1051 1220 1051C1218.9 1051 1218 1051.9 1218 1053C1218 1054.1 1218.9 1055 1220 1055ZM1238 1053C1238 1054.1 1237.1 1055 1236 1055C1234.9 1055 1234 1054.1 1234 1053C1234 1051.9 1234.9 1051 1236 1051C1237.1 1051 1238 1051.9 1238 1053ZM1252 1055C1253.1 1055 1254 1054.1 1254 1053C1254 1051.9 1253.1 1051 1252 1051C1250.9 1051 1250 1051.9 1250 1053C1250 1054.1 1250.9 1055 1252 1055ZM1172 1039C1173.1 1039 1174 1038.1 1174 1037C1174 1035.9 1173.1 1035 1172 1035C1170.9 1035 1170 1035.9 1170 1037C1170 1038.1 1170.9 1039 1172 1039ZM1174 1069C1174 1070.1 1173.1 1071 1172 1071C1170.9 1071 1170 1070.1 1170 1069C1170 1067.9 1170.9 1067 1172 1067C1173.1 1067 1174 1067.9 1174 1069ZM1172 1087C1173.1 1087 1174 1086.1 1174 1085C1174 1083.9 1173.1 1083 1172 1083C1170.9 1083 1170 1083.9 1170 1085C1170 1086.1 1170.9 1087 1172 1087ZM1188 1087C1189.1 1087 1190 1086.1 1190 1085C1190 1083.9 1189.1 1083 1188 1083C1186.9 1083 1186 1083.9 1186 1085C1186 1086.1 1186.9 1087 1188 1087ZM1206 1085C1206 1086.1 1205.1 1087 1204 1087C1202.9 1087 1202 1086.1 1202 1085C1202 1083.9 1202.9 1083 1204 1083C1205.1 1083 1206 1083.9 1206 1085ZM1220 1087C1221.1 1087 1222 1086.1 1222 1085C1222 1083.9 1221.1 1083 1220 1083C1218.9 1083 1218 1083.9 1218 1085C1218 1086.1 1218.9 1087 1220 1087ZM1238 1085C1238 1086.1 1237.1 1087 1236 1087C1234.9 1087 1234 1086.1 1234 1085C1234 1083.9 1234.9 1083 1236 1083C1237.1 1083 1238 1083.9 1238 1085ZM1252 1087C1253.1 1087 1254 1086.1 1254 1085C1254 1083.9 1253.1 1083 1252 1083C1250.9 1083 1250 1083.9 1250 1085C1250 1086.1 1250.9 1087 1252 1087ZM1188 1071C1189.1 1071 1190 1070.1 1190 1069C1190 1067.9 1189.1 1067 1188 1067C1186.9 1067 1186 1067.9 1186 1069C1186 1070.1 1186.9 1071 1188 1071ZM1206 1069C1206 1070.1 1205.1 1071 1204 1071C1202.9 1071 1202 1070.1 1202 1069C1202 1067.9 1202.9 1067 1204 1067C1205.1 1067 1206 1067.9 1206 1069ZM1220 1071C1221.1 1071 1222 1070.1 1222 1069C1222 1067.9 1221.1 1067 1220 1067C1218.9 1067 1218 1067.9 1218 1069C1218 1070.1 1218.9 1071 1220 1071ZM1238 1069C1238 1070.1 1237.1 1071 1236 1071C1234.9 1071 1234 1070.1 1234 1069C1234 1067.9 1234.9 1067 1236 1067C1237.1 1067 1238 1067.9 1238 1069ZM1252 1071C1253.1 1071 1254 1070.1 1254 1069C1254 1067.9 1253.1 1067 1252 1067C1250.9 1067 1250 1067.9 1250 1069C1250 1070.1 1250.9 1071 1252 1071ZM1188 1039C1189.1 1039 1190 1038.1 1190 1037C1190 1035.9 1189.1 1035 1188 1035C1186.9 1035 1186 1035.9 1186 1037C1186 1038.1 1186.9 1039 1188 1039ZM1272 1069C1272 1070.1 1271.1 1071 1270 1071C1268.9 1071 1268 1070.1 1268 1069C1268 1067.9 1268.9 1067 1270 1067C1271.1 1067 1272 1067.9 1272 1069ZM1270 1087C1271.1 1087 1272 1086.1 1272 1085C1272 1083.9 1271.1 1083 1270 1083C1268.9 1083 1268 1083.9 1268 1085C1268 1086.1 1268.9 1087 1270 1087ZM1286 1087C1287.1 1087 1288 1086.1 1288 1085C1288 1083.9 1287.1 1083 1286 1083C1284.9 1083 1284 1083.9 1284 1085C1284 1086.1 1284.9 1087 1286 1087ZM1304 1085C1304 1086.1 1303.1 1087 1302 1087C1300.9 1087 1300 1086.1 1300 1085C1300 1083.9 1300.9 1083 1302 1083C1303.1 1083 1304 1083.9 1304 1085ZM1318 1087C1319.1 1087 1320 1086.1 1320 1085C1320 1083.9 1319.1 1083 1318 1083C1316.9 1083 1316 1083.9 1316 1085C1316 1086.1 1316.9 1087 1318 1087ZM1336 1085C1336 1086.1 1335.1 1087 1334 1087C1332.9 1087 1332 1086.1 1332 1085C1332 1083.9 1332.9 1083 1334 1083C1335.1 1083 1336 1083.9 1336 1085ZM1350 1087C1351.1 1087 1352 1086.1 1352 1085C1352 1083.9 1351.1 1083 1350 1083C1348.9 1083 1348 1083.9 1348 1085C1348 1086.1 1348.9 1087 1350 1087ZM1286 1071C1287.1 1071 1288 1070.1 1288 1069C1288 1067.9 1287.1 1067 1286 1067C1284.9 1067 1284 1067.9 1284 1069C1284 1070.1 1284.9 1071 1286 1071ZM1304 1069C1304 1070.1 1303.1 1071 1302 1071C1300.9 1071 1300 1070.1 1300 1069C1300 1067.9 1300.9 1067 1302 1067C1303.1 1067 1304 1067.9 1304 1069ZM1318 1071C1319.1 1071 1320 1070.1 1320 1069C1320 1067.9 1319.1 1067 1318 1067C1316.9 1067 1316 1067.9 1316 1069C1316 1070.1 1316.9 1071 1318 1071ZM1336 1069C1336 1070.1 1335.1 1071 1334 1071C1332.9 1071 1332 1070.1 1332 1069C1332 1067.9 1332.9 1067 1334 1067C1335.1 1067 1336 1067.9 1336 1069ZM1350 1071C1351.1 1071 1352 1070.1 1352 1069C1352 1067.9 1351.1 1067 1350 1067C1348.9 1067 1348 1067.9 1348 1069C1348 1070.1 1348.9 1071 1350 1071ZM1204 1039C1205.1 1039 1206 1038.1 1206 1037C1206 1035.9 1205.1 1035 1204 1035C1202.9 1035 1202 1035.9 1202 1037C1202 1038.1 1202.9 1039 1204 1039ZM1222 1037C1222 1038.1 1221.1 1039 1220 1039C1218.9 1039 1218 1038.1 1218 1037C1218 1035.9 1218.9 1035 1220 1035C1221.1 1035 1222 1035.9 1222 1037ZM1236 1039C1237.1 1039 1238 1038.1 1238 1037C1238 1035.9 1237.1 1035 1236 1035C1234.9 1035 1234 1035.9 1234 1037C1234 1038.1 1234.9 1039 1236 1039ZM1254 1037C1254 1038.1 1253.1 1039 1252 1039C1250.9 1039 1250 1038.1 1250 1037C1250 1035.9 1250.9 1035 1252 1035C1253.1 1035 1254 1035.9 1254 1037Z" fill="#F6B76C"/>
<path fill-rule="evenodd" clip-rule="evenodd" d="M1272 973C1272 974.105 1271.1 975 1270 975C1268.9 975 1268 974.105 1268 973C1268 971.895 1268.9 971 1270 971C1271.1 971 1272 971.895 1272 973ZM1270 991C1271.1 991 1272 990.105 1272 989C1272 987.895 1271.1 987 1270 987C1268.9 987 1268 987.895 1268 989C1268 990.105 1268.9 991 1270 991ZM1286 991C1287.1 991 1288 990.105 1288 989C1288 987.895 1287.1 987 1286 987C1284.9 987 1284 987.895 1284 989C1284 990.105 1284.9 991 1286 991ZM1304 989C1304 990.105 1303.1 991 1302 991C1300.9 991 1300 990.105 1300 989C1300 987.895 1300.9 987 1302 987C1303.1 987 1304 987.895 1304 989ZM1318 991C1319.1 991 1320 990.105 1320 989C1320 987.895 1319.1 987 1318 987C1316.9 987 1316 987.895 1316 989C1316 990.105 1316.9 991 1318 991ZM1336 989C1336 990.105 1335.1 991 1334 991C1332.9 991 1332 990.105 1332 989C1332 987.895 1332.9 987 1334 987C1335.1 987 1336 987.895 1336 989ZM1350 991C1351.1 991 1352 990.105 1352 989C1352 987.895 1351.1 987 1350 987C1348.9 987 1348 987.895 1348 989C1348 990.105 1348.9 991 1350 991ZM1286 975C1287.1 975 1288 974.105 1288 973C1288 971.895 1287.1 971 1286 971C1284.9 971 1284 971.895 1284 973C1284 974.105 1284.9 975 1286 975ZM1304 973C1304 974.105 1303.1 975 1302 975C1300.9 975 1300 974.105 1300 973C1300 971.895 1300.9 971 1302 971C1303.1 971 1304 971.895 1304 973ZM1318 975C1319.1 975 1320 974.105 1320 973C1320 971.895 1319.1 971 1318 971C1316.9 971 1316 971.895 1316 973C1316 974.105 1316.9 975 1318 975ZM1336 973C1336 974.105 1335.1 975 1334 975C1332.9 975 1332 974.105 1332 973C1332 971.895 1332.9 971 1334 971C1335.1 971 1336 971.895 1336 973ZM1350 975C1351.1 975 1352 974.105 1352 973C1352 971.895 1351.1 971 1350 971C1348.9 971 1348 971.895 1348 973C1348 974.105 1348.9 975 1350 975ZM1172 991C1173.1 991 1174 990.105 1174 989C1174 987.895 1173.1 987 1172 987C1170.9 987 1170 987.895 1170 989C1170 990.105 1170.9 991 1172 991ZM1188 991C1189.1 991 1190 990.105 1190 989C1190 987.895 1189.1 987 1188 987C1186.9 987 1186 987.895 1186 989C1186 990.105 1186.9 991 1188 991ZM1206 989C1206 990.105 1205.1 991 1204 991C1202.9 991 1202 990.105 1202 989C1202 987.895 1202.9 987 1204 987C1205.1 987 1206 987.895 1206 989ZM1220 991C1221.1 991 1222 990.105 1222 989C1222 987.895 1221.1 987 1220 987C1218.9 987 1218 987.895 1218 989C1218 990.105 1218.9 991 1220 991ZM1238 989C1238 990.105 1237.1 991 1236 991C1234.9 991 1234 990.105 1234 989C1234 987.895 1234.9 987 1236 987C1237.1 987 1238 987.895 1238 989ZM1252 991C1253.1 991 1254 990.105 1254 989C1254 987.895 1253.1 987 1252 987C1250.9 987 1250 987.895 1250 989C1250 990.105 1250.9 991 1252 991ZM1172 975C1173.1 975 1174 974.105 1174 973C1174 971.895 1173.1 971 1172 971C1170.9 971 1170 971.895 1170 973C1170 974.105 1170.9 975 1172 975ZM1174 1005C1174 1006.1 1173.1 1007 1172 1007C1170.9 1007 1170 1006.1 1170 1005C1170 1003.9 1170.9 1003 1172 1003C1173.1 1003 1174 1003.9 1174 1005ZM1172 1023C1173.1 1023 1174 1022.1 1174 1021C1174 1019.9 1173.1 1019 1172 1019C1170.9 1019 1170 1019.9 1170 1021C1170 1022.1 1170.9 1023 1172 1023ZM1188 1023C1189.1 1023 1190 1022.1 1190 1021C1190 1019.9 1189.1 1019 1188 1019C1186.9 1019 1186 1019.9 1186 1021C1186 1022.1 1186.9 1023 1188 1023ZM1206 1021C1206 1022.1 1205.1 1023 1204 1023C1202.9 1023 1202 1022.1 1202 1021C1202 1019.9 1202.9 1019 1204 1019C1205.1 1019 1206 1019.9 1206 1021ZM1220 1023C1221.1 1023 1222 1022.1 1222 1021C1222 1019.9 1221.1 1019 1220 1019C1218.9 1019 1218 1019.9 1218 1021C1218 1022.1 1218.9 1023 1220 1023ZM1238 1021C1238 1022.1 1237.1 1023 1236 1023C1234.9 1023 1234 1022.1 1234 1021C1234 1019.9 1234.9 1019 1236 1019C1237.1 1019 1238 1019.9 1238 1021ZM1252 1023C1253.1 1023 1254 1022.1 1254 1021C1254 1019.9 1253.1 1019 1252 1019C1250.9 1019 1250 1019.9 1250 1021C1250 1022.1 1250.9 1023 1252 1023ZM1188 1007C1189.1 1007 1190 1006.1 1190 1005C1190 1003.9 1189.1 1003 1188 1003C1186.9 1003 1186 1003.9 1186 1005C1186 1006.1 1186.9 1007 1188 1007ZM1206 1005C1206 1006.1 1205.1 1007 1204 1007C1202.9 1007 1202 1006.1 1202 1005C1202 1003.9 1202.9 1003 1204 1003C1205.1 1003 1206 1003.9 1206 1005ZM1220 1007C1221.1 1007 1222 1006.1 1222 1005C1222 1003.9 1221.1 1003 1220 1003C1218.9 1003 1218 1003.9 1218 1005C1218 1006.1 1218.9 1007 1220 1007ZM1238 1005C1238 1006.1 1237.1 1007 1236 1007C1234.9 1007 1234 1006.1 1234 1005C1234 1003.9 1234.9 1003 1236 1003C1237.1 1003 1238 1003.9 1238 1005ZM1252 1007C1253.1 1007 1254 1006.1 1254 1005C1254 1003.9 1253.1 1003 1252 1003C1250.9 1003 1250 1003.9 1250 1005C1250 1006.1 1250.9 1007 1252 1007ZM1188 975C1189.1 975 1190 974.105 1190 973C1190 971.895 1189.1 971 1188 971C1186.9 971 1186 971.895 1186 973C1186 974.105 1186.9 975 1188 975ZM1272 1005C1272 1006.1 1271.1 1007 1270 1007C1268.9 1007 1268 1006.1 1268 1005C1268 1003.9 1268.9 1003 1270 1003C1271.1 1003 1272 1003.9 1272 1005ZM1270 1023C1271.1 1023 1272 1022.1 1272 1021C1272 1019.9 1271.1 1019 1270 1019C1268.9 1019 1268 1019.9 1268 1021C1268 1022.1 1268.9 1023 1270 1023ZM1286 1023C1287.1 1023 1288 1022.1 1288 1021C1288 1019.9 1287.1 1019 1286 1019C1284.9 1019 1284 1019.9 1284 1021C1284 1022.1 1284.9 1023 1286 1023ZM1304 1021C1304 1022.1 1303.1 1023 1302 1023C1300.9 1023 1300 1022.1 1300 1021C1300 1019.9 1300.9 1019 1302 1019C1303.1 1019 1304 1019.9 1304 1021ZM1318 1023C1319.1 1023 1320 1022.1 1320 1021C1320 1019.9 1319.1 1019 1318 1019C1316.9 1019 1316 1019.9 1316 1021C1316 1022.1 1316.9 1023 1318 1023ZM1336 1021C1336 1022.1 1335.1 1023 1334 1023C1332.9 1023 1332 1022.1 1332 1021C1332 1019.9 1332.9 1019 1334 1019C1335.1 1019 1336 1019.9 1336 1021ZM1350 1023C1351.1 1023 1352 1022.1 1352 1021C1352 1019.9 1351.1 1019 1350 1019C1348.9 1019 1348 1019.9 1348 1021C1348 1022.1 1348.9 1023 1350 1023ZM1286 1007C1287.1 1007 1288 1006.1 1288 1005C1288 1003.9 1287.1 1003 1286 1003C1284.9 1003 1284 1003.9 1284 1005C1284 1006.1 1284.9 1007 1286 1007ZM1304 1005C1304 1006.1 1303.1 1007 1302 1007C1300.9 1007 1300 1006.1 1300 1005C1300 1003.9 1300.9 1003 1302 1003C1303.1 1003 1304 1003.9 1304 1005ZM1318 1007C1319.1 1007 1320 1006.1 1320 1005C1320 1003.9 1319.1 1003 1318 1003C1316.9 1003 1316 1003.9 1316 1005C1316 1006.1 1316.9 1007 1318 1007ZM1336 1005C1336 1006.1 1335.1 1007 1334 1007C1332.9 1007 1332 1006.1 1332 1005C1332 1003.9 1332.9 1003 1334 1003C1335.1 1003 1336 1003.9 1336 1005ZM1350 1007C1351.1 1007 1352 1006.1 1352 1005C1352 1003.9 1351.1 1003 1350 1003C1348.9 1003 1348 1003.9 1348 1005C1348 1006.1 1348.9 1007 1350 1007ZM1204 975C1205.1 975 1206 974.105 1206 973C1206 971.895 1205.1 971 1204 971C1202.9 971 1202 971.895 1202 973C1202 974.105 1202.9 975 1204 975ZM1222 973C1222 974.105 1221.1 975 1220 975C1218.9 975 1218 974.105 1218 973C1218 971.895 1218.9 971 1220 971C1221.1 971 1222 971.895 1222 973ZM1236 975C1237.1 975 1238 974.105 1238 973C1238 971.895 1237.1 971 1236 971C1234.9 971 1234 971.895 1234 973C1234 974.105 1234.9 975 1236 975ZM1254 973C1254 974.105 1253.1 975 1252 975C1250.9 975 1250 974.105 1250 973C1250 971.895 1250.9 971 1252 971C1253.1 971 1254 971.895 1254 973Z" fill="#F6B76C"/>
<path d="M859 0H1440V852H976C911.383 852 859 799.617 859 735V0Z" fill="#F7F7F7"/>
<path opacity="0.197266" d="M1502.5 668C1502.5 722.4 1458.4 766.5 1404 766.5C1349.6 766.5 1305.5 722.4 1305.5 668C1305.5 613.6 1349.6 569.5 1404 569.5C1458.4 569.5 1502.5 613.6 1502.5 668Z" stroke="#CFCFCF" stroke-width="3"/>
<path opacity="0.197266" d="M1499.75 668.229C1499.75 711.609 1464.58 746.775 1421.2 746.775C1377.82 746.775 1342.66 711.609 1342.66 668.229C1342.66 624.85 1377.82 589.684 1421.2 589.684C1464.58 589.684 1499.75 624.85 1499.75 668.229Z" stroke="#CFCFCF" stroke-width="3"/>
<path opacity="0.197266" d="M1484.53 675.128C1484.53 718.586 1452.35 753.674 1409.05 753.674C1365.67 753.674 1330.5 718.508 1330.5 675.128C1330.5 653.475 1339.26 636.878 1353.38 625.661C1367.54 614.413 1387.19 608.5 1409.05 608.5C1430.89 608.5 1449.77 614.411 1463.15 625.635C1476.5 636.832 1484.53 653.428 1484.53 675.128Z" stroke="#CFCFCF" stroke-width="3"/>
<path opacity="0.197266" d="M1327.5 297C1327.5 351.4 1283.4 395.5 1229 395.5C1174.6 395.5 1130.5 351.4 1130.5 297C1130.5 242.6 1174.6 198.5 1229 198.5C1283.4 198.5 1327.5 242.6 1327.5 297Z" stroke="#CFCFCF" stroke-width="3"/>
<path opacity="0.197266" d="M1324.75 297.229C1324.75 340.609 1289.58 375.775 1246.2 375.775C1202.82 375.775 1167.66 340.609 1167.66 297.229C1167.66 253.85 1202.82 218.684 1246.2 218.684C1289.58 218.684 1324.75 253.85 1324.75 297.229Z" stroke="#CFCFCF" stroke-width="3"/>
<path opacity="0.197266" d="M1309.53 304.128C1309.53 347.586 1277.35 382.674 1234.05 382.674C1190.67 382.674 1155.5 347.508 1155.5 304.128C1155.5 282.475 1164.26 265.878 1178.38 254.661C1192.54 243.413 1212.19 237.5 1234.05 237.5C1255.89 237.5 1274.77 243.411 1288.15 254.635C1301.5 265.832 1309.53 282.428 1309.53 304.128Z" stroke="#CFCFCF" stroke-width="3"/>
<path opacity="0.197266" d="M252.5 297C252.5 351.4 208.4 395.5 154 395.5C99.5999 395.5 55.5 351.4 55.5 297C55.5 242.6 99.5999 198.5 154 198.5C208.4 198.5 252.5 242.6 252.5 297Z" stroke="#CFCFCF" stroke-width="3"/>
<path opacity="0.197266" d="M249.748 297.229C249.748 340.609 214.582 375.775 171.202 375.775C127.822 375.775 92.656 340.609 92.656 297.229C92.656 253.85 127.822 218.684 171.202 218.684C214.582 218.684 249.748 253.85 249.748 297.229Z" stroke="#CFCFCF" stroke-width="3"/>
<path opacity="0.197266" d="M234.529 304.128C234.529 347.586 202.35 382.674 159.046 382.674C115.666 382.674 80.5 347.508 80.5 304.128C80.5 282.475 89.2562 265.878 103.378 254.661C117.538 243.413 137.195 237.5 159.046 237.5C180.894 237.5 199.768 243.411 213.152 254.635C226.502 265.832 234.529 282.428 234.529 304.128Z" stroke="#CFCFCF" stroke-width="3"/>
<path opacity="0.197266" d="M131.5 944C131.5 998.4 87.4 1042.5 33 1042.5C-21.4001 1042.5 -65.5 998.4 -65.5 944C-65.5 889.6 -21.4001 845.5 33 845.5C87.4 845.5 131.5 889.6 131.5 944Z" stroke="#CFCFCF" stroke-width="3"/>
<path opacity="0.197266" d="M128.748 944.229C128.748 987.609 93.5816 1022.78 50.2019 1022.78C6.82219 1022.78 -28.344 987.609 -28.344 944.229C-28.344 900.85 6.82219 865.684 50.2019 865.684C93.5816 865.684 128.748 900.85 128.748 944.229Z" stroke="#CFCFCF" stroke-width="3"/>
<path opacity="0.197266" d="M113.529 951.128C113.529 994.586 81.3499 1029.67 38.0459 1029.67C-5.33381 1029.67 -40.5 994.508 -40.5 951.128C-40.5 929.475 -31.7438 912.878 -17.6221 901.661C-3.46218 890.413 16.1948 884.5 38.0459 884.5C59.8945 884.5 78.7681 890.411 92.1518 901.635C105.502 912.832 113.529 929.428 113.529 951.128Z" stroke="#CFCFCF" stroke-width="3"/>
<path opacity="0.197266" d="M131.5 944C131.5 998.4 87.4 1042.5 33 1042.5C-21.4001 1042.5 -65.5 998.4 -65.5 944C-65.5 889.6 -21.4001 845.5 33 845.5C87.4 845.5 131.5 889.6 131.5 944Z" stroke="#CFCFCF" stroke-width="3"/>
<path opacity="0.197266" d="M128.748 944.229C128.748 987.609 93.5816 1022.78 50.2019 1022.78C6.82219 1022.78 -28.344 987.609 -28.344 944.229C-28.344 900.85 6.82219 865.684 50.2019 865.684C93.5816 865.684 128.748 900.85 128.748 944.229Z" stroke="#CFCFCF" stroke-width="3"/>
<path opacity="0.197266" d="M113.529 951.128C113.529 994.586 81.3499 1029.67 38.0459 1029.67C-5.33381 1029.67 -40.5 994.508 -40.5 951.128C-40.5 929.475 -31.7438 912.878 -17.6221 901.661C-3.46218 890.413 16.1948 884.5 38.0459 884.5C59.8945 884.5 78.7681 890.411 92.1518 901.635C105.502 912.832 113.529 929.428 113.529 951.128Z" stroke="#CFCFCF" stroke-width="3"/>
</svg>
