<svg width="855" height="618" viewBox="0 0 855 618" fill="none" xmlns="http://www.w3.org/2000/svg">
<path d="M676 521C677.105 521 678 520.105 678 519C678 517.895 677.105 517 676 517C674.895 517 674 517.895 674 519C674 520.105 674.895 521 676 521Z" fill="#D8D8D8"/>
<path d="M692 521C693.105 521 694 520.105 694 519C694 517.895 693.105 517 692 517C690.895 517 690 517.895 690 519C690 520.105 690.895 521 692 521Z" fill="#D8D8D8"/>
<path d="M708 521C709.105 521 710 520.105 710 519C710 517.895 709.105 517 708 517C706.895 517 706 517.895 706 519C706 520.105 706.895 521 708 521Z" fill="#D8D8D8"/>
<path d="M724 521C725.105 521 726 520.105 726 519C726 517.895 725.105 517 724 517C722.895 517 722 517.895 722 519C722 520.105 722.895 521 724 521Z" fill="#D8D8D8"/>
<path d="M740 521C741.105 521 742 520.105 742 519C742 517.895 741.105 517 740 517C738.895 517 738 517.895 738 519C738 520.105 738.895 521 740 521Z" fill="#D8D8D8"/>
<path d="M756 521C757.105 521 758 520.105 758 519C758 517.895 757.105 517 756 517C754.895 517 754 517.895 754 519C754 520.105 754.895 521 756 521Z" fill="#D8D8D8"/>
<path d="M773 521C774.105 521 775 520.105 775 519C775 517.895 774.105 517 773 517C771.895 517 771 517.895 771 519C771 520.105 771.895 521 773 521Z" fill="#D8D8D8"/>
<path d="M789 521C790.105 521 791 520.105 791 519C791 517.895 790.105 517 789 517C787.895 517 787 517.895 787 519C787 520.105 787.895 521 789 521Z" fill="#D8D8D8"/>
<path d="M805 521C806.105 521 807 520.105 807 519C807 517.895 806.105 517 805 517C803.895 517 803 517.895 803 519C803 520.105 803.895 521 805 521Z" fill="#D8D8D8"/>
<path d="M821 521C822.105 521 823 520.105 823 519C823 517.895 822.105 517 821 517C819.895 517 819 517.895 819 519C819 520.105 819.895 521 821 521Z" fill="#D8D8D8"/>
<path d="M837 521C838.105 521 839 520.105 839 519C839 517.895 838.105 517 837 517C835.895 517 835 517.895 835 519C835 520.105 835.895 521 837 521Z" fill="#D8D8D8"/>
<path d="M853 521C854.105 521 855 520.105 855 519C855 517.895 854.105 517 853 517C851.895 517 851 517.895 851 519C851 520.105 851.895 521 853 521Z" fill="#D8D8D8"/>
<path d="M773 505C774.105 505 775 504.105 775 503C775 501.895 774.105 501 773 501C771.895 501 771 501.895 771 503C771 504.105 771.895 505 773 505Z" fill="#D8D8D8"/>
<path d="M789 505C790.105 505 791 504.105 791 503C791 501.895 790.105 501 789 501C787.895 501 787 501.895 787 503C787 504.105 787.895 505 789 505Z" fill="#D8D8D8"/>
<path d="M805 505C806.105 505 807 504.105 807 503C807 501.895 806.105 501 805 501C803.895 501 803 501.895 803 503C803 504.105 803.895 505 805 505Z" fill="#D8D8D8"/>
<path d="M821 505C822.105 505 823 504.105 823 503C823 501.895 822.105 501 821 501C819.895 501 819 501.895 819 503C819 504.105 819.895 505 821 505Z" fill="#D8D8D8"/>
<path d="M837 505C838.105 505 839 504.105 839 503C839 501.895 838.105 501 837 501C835.895 501 835 501.895 835 503C835 504.105 835.895 505 837 505Z" fill="#D8D8D8"/>
<path d="M853 505C854.105 505 855 504.105 855 503C855 501.895 854.105 501 853 501C851.895 501 851 501.895 851 503C851 504.105 851.895 505 853 505Z" fill="#D8D8D8"/>
<path d="M676 505C677.105 505 678 504.105 678 503C678 501.895 677.105 501 676 501C674.895 501 674 501.895 674 503C674 504.105 674.895 505 676 505Z" fill="#D8D8D8"/>
<path d="M676 553C677.105 553 678 552.105 678 551C678 549.895 677.105 549 676 549C674.895 549 674 549.895 674 551C674 552.105 674.895 553 676 553Z" fill="#D8D8D8"/>
<path d="M692 553C693.105 553 694 552.105 694 551C694 549.895 693.105 549 692 549C690.895 549 690 549.895 690 551C690 552.105 690.895 553 692 553Z" fill="#D8D8D8"/>
<path d="M708 553C709.105 553 710 552.105 710 551C710 549.895 709.105 549 708 549C706.895 549 706 549.895 706 551C706 552.105 706.895 553 708 553Z" fill="#D8D8D8"/>
<path d="M724 553C725.105 553 726 552.105 726 551C726 549.895 725.105 549 724 549C722.895 549 722 549.895 722 551C722 552.105 722.895 553 724 553Z" fill="#D8D8D8"/>
<path d="M740 553C741.105 553 742 552.105 742 551C742 549.895 741.105 549 740 549C738.895 549 738 549.895 738 551C738 552.105 738.895 553 740 553Z" fill="#D8D8D8"/>
<path d="M756 553C757.105 553 758 552.105 758 551C758 549.895 757.105 549 756 549C754.895 549 754 549.895 754 551C754 552.105 754.895 553 756 553Z" fill="#D8D8D8"/>
<path d="M676 537C677.105 537 678 536.105 678 535C678 533.895 677.105 533 676 533C674.895 533 674 533.895 674 535C674 536.105 674.895 537 676 537Z" fill="#D8D8D8"/>
<path d="M692 537C693.105 537 694 536.105 694 535C694 533.895 693.105 533 692 533C690.895 533 690 533.895 690 535C690 536.105 690.895 537 692 537Z" fill="#D8D8D8"/>
<path d="M708 537C709.105 537 710 536.105 710 535C710 533.895 709.105 533 708 533C706.895 533 706 533.895 706 535C706 536.105 706.895 537 708 537Z" fill="#D8D8D8"/>
<path d="M724 537C725.105 537 726 536.105 726 535C726 533.895 725.105 533 724 533C722.895 533 722 533.895 722 535C722 536.105 722.895 537 724 537Z" fill="#D8D8D8"/>
<path d="M740 537C741.105 537 742 536.105 742 535C742 533.895 741.105 533 740 533C738.895 533 738 533.895 738 535C738 536.105 738.895 537 740 537Z" fill="#D8D8D8"/>
<path d="M756 537C757.105 537 758 536.105 758 535C758 533.895 757.105 533 756 533C754.895 533 754 533.895 754 535C754 536.105 754.895 537 756 537Z" fill="#D8D8D8"/>
<path d="M692 505C693.105 505 694 504.105 694 503C694 501.895 693.105 501 692 501C690.895 501 690 501.895 690 503C690 504.105 690.895 505 692 505Z" fill="#D8D8D8"/>
<path d="M773 553C774.105 553 775 552.105 775 551C775 549.895 774.105 549 773 549C771.895 549 771 549.895 771 551C771 552.105 771.895 553 773 553Z" fill="#D8D8D8"/>
<path d="M789 553C790.105 553 791 552.105 791 551C791 549.895 790.105 549 789 549C787.895 549 787 549.895 787 551C787 552.105 787.895 553 789 553Z" fill="#D8D8D8"/>
<path d="M805 553C806.105 553 807 552.105 807 551C807 549.895 806.105 549 805 549C803.895 549 803 549.895 803 551C803 552.105 803.895 553 805 553Z" fill="#D8D8D8"/>
<path d="M821 553C822.105 553 823 552.105 823 551C823 549.895 822.105 549 821 549C819.895 549 819 549.895 819 551C819 552.105 819.895 553 821 553Z" fill="#D8D8D8"/>
<path d="M837 553C838.105 553 839 552.105 839 551C839 549.895 838.105 549 837 549C835.895 549 835 549.895 835 551C835 552.105 835.895 553 837 553Z" fill="#D8D8D8"/>
<path d="M853 553C854.105 553 855 552.105 855 551C855 549.895 854.105 549 853 549C851.895 549 851 549.895 851 551C851 552.105 851.895 553 853 553Z" fill="#D8D8D8"/>
<path d="M773 537C774.105 537 775 536.105 775 535C775 533.895 774.105 533 773 533C771.895 533 771 533.895 771 535C771 536.105 771.895 537 773 537Z" fill="#D8D8D8"/>
<path d="M789 537C790.105 537 791 536.105 791 535C791 533.895 790.105 533 789 533C787.895 533 787 533.895 787 535C787 536.105 787.895 537 789 537Z" fill="#D8D8D8"/>
<path d="M805 537C806.105 537 807 536.105 807 535C807 533.895 806.105 533 805 533C803.895 533 803 533.895 803 535C803 536.105 803.895 537 805 537Z" fill="#D8D8D8"/>
<path d="M821 537C822.105 537 823 536.105 823 535C823 533.895 822.105 533 821 533C819.895 533 819 533.895 819 535C819 536.105 819.895 537 821 537Z" fill="#D8D8D8"/>
<path d="M837 537C838.105 537 839 536.105 839 535C839 533.895 838.105 533 837 533C835.895 533 835 533.895 835 535C835 536.105 835.895 537 837 537Z" fill="#D8D8D8"/>
<path d="M853 537C854.105 537 855 536.105 855 535C855 533.895 854.105 533 853 533C851.895 533 851 533.895 851 535C851 536.105 851.895 537 853 537Z" fill="#D8D8D8"/>
<path d="M708 505C709.105 505 710 504.105 710 503C710 501.895 709.105 501 708 501C706.895 501 706 501.895 706 503C706 504.105 706.895 505 708 505Z" fill="#D8D8D8"/>
<path d="M724 505C725.105 505 726 504.105 726 503C726 501.895 725.105 501 724 501C722.895 501 722 501.895 722 503C722 504.105 722.895 505 724 505Z" fill="#D8D8D8"/>
<path d="M740 505C741.105 505 742 504.105 742 503C742 501.895 741.105 501 740 501C738.895 501 738 501.895 738 503C738 504.105 738.895 505 740 505Z" fill="#D8D8D8"/>
<path d="M756 505C757.105 505 758 504.105 758 503C758 501.895 757.105 501 756 501C754.895 501 754 501.895 754 503C754 504.105 754.895 505 756 505Z" fill="#D8D8D8"/>
<path d="M671 586C672.105 586 673 585.105 673 584C673 582.895 672.105 582 671 582C669.895 582 669 582.895 669 584C669 585.105 669.895 586 671 586Z" fill="#D8D8D8"/>
<path d="M687 586C688.105 586 689 585.105 689 584C689 582.895 688.105 582 687 582C685.895 582 685 582.895 685 584C685 585.105 685.895 586 687 586Z" fill="#D8D8D8"/>
<path d="M703 586C704.105 586 705 585.105 705 584C705 582.895 704.105 582 703 582C701.895 582 701 582.895 701 584C701 585.105 701.895 586 703 586Z" fill="#D8D8D8"/>
<path d="M719 586C720.105 586 721 585.105 721 584C721 582.895 720.105 582 719 582C717.895 582 717 582.895 717 584C717 585.105 717.895 586 719 586Z" fill="#D8D8D8"/>
<path d="M735 586C736.105 586 737 585.105 737 584C737 582.895 736.105 582 735 582C733.895 582 733 582.895 733 584C733 585.105 733.895 586 735 586Z" fill="#D8D8D8"/>
<path d="M751 586C752.105 586 753 585.105 753 584C753 582.895 752.105 582 751 582C749.895 582 749 582.895 749 584C749 585.105 749.895 586 751 586Z" fill="#D8D8D8"/>
<path d="M773 586C774.105 586 775 585.105 775 584C775 582.895 774.105 582 773 582C771.895 582 771 582.895 771 584C771 585.105 771.895 586 773 586Z" fill="#D8D8D8"/>
<path d="M789 586C790.105 586 791 585.105 791 584C791 582.895 790.105 582 789 582C787.895 582 787 582.895 787 584C787 585.105 787.895 586 789 586Z" fill="#D8D8D8"/>
<path d="M805 586C806.105 586 807 585.105 807 584C807 582.895 806.105 582 805 582C803.895 582 803 582.895 803 584C803 585.105 803.895 586 805 586Z" fill="#D8D8D8"/>
<path d="M821 586C822.105 586 823 585.105 823 584C823 582.895 822.105 582 821 582C819.895 582 819 582.895 819 584C819 585.105 819.895 586 821 586Z" fill="#D8D8D8"/>
<path d="M837 586C838.105 586 839 585.105 839 584C839 582.895 838.105 582 837 582C835.895 582 835 582.895 835 584C835 585.105 835.895 586 837 586Z" fill="#D8D8D8"/>
<path d="M853 586C854.105 586 855 585.105 855 584C855 582.895 854.105 582 853 582C851.895 582 851 582.895 851 584C851 585.105 851.895 586 853 586Z" fill="#D8D8D8"/>
<path d="M773 570C774.105 570 775 569.105 775 568C775 566.895 774.105 566 773 566C771.895 566 771 566.895 771 568C771 569.105 771.895 570 773 570Z" fill="#D8D8D8"/>
<path d="M789 570C790.105 570 791 569.105 791 568C791 566.895 790.105 566 789 566C787.895 566 787 566.895 787 568C787 569.105 787.895 570 789 570Z" fill="#D8D8D8"/>
<path d="M805 570C806.105 570 807 569.105 807 568C807 566.895 806.105 566 805 566C803.895 566 803 566.895 803 568C803 569.105 803.895 570 805 570Z" fill="#D8D8D8"/>
<path d="M821 570C822.105 570 823 569.105 823 568C823 566.895 822.105 566 821 566C819.895 566 819 566.895 819 568C819 569.105 819.895 570 821 570Z" fill="#D8D8D8"/>
<path d="M837 570C838.105 570 839 569.105 839 568C839 566.895 838.105 566 837 566C835.895 566 835 566.895 835 568C835 569.105 835.895 570 837 570Z" fill="#D8D8D8"/>
<path d="M853 570C854.105 570 855 569.105 855 568C855 566.895 854.105 566 853 566C851.895 566 851 566.895 851 568C851 569.105 851.895 570 853 570Z" fill="#D8D8D8"/>
<path d="M671 570C672.105 570 673 569.105 673 568C673 566.895 672.105 566 671 566C669.895 566 669 566.895 669 568C669 569.105 669.895 570 671 570Z" fill="#D8D8D8"/>
<path d="M671 618C672.105 618 673 617.105 673 616C673 614.895 672.105 614 671 614C669.895 614 669 614.895 669 616C669 617.105 669.895 618 671 618Z" fill="#D8D8D8"/>
<path d="M687 618C688.105 618 689 617.105 689 616C689 614.895 688.105 614 687 614C685.895 614 685 614.895 685 616C685 617.105 685.895 618 687 618Z" fill="#D8D8D8"/>
<path d="M703 618C704.105 618 705 617.105 705 616C705 614.895 704.105 614 703 614C701.895 614 701 614.895 701 616C701 617.105 701.895 618 703 618Z" fill="#D8D8D8"/>
<path d="M719 618C720.105 618 721 617.105 721 616C721 614.895 720.105 614 719 614C717.895 614 717 614.895 717 616C717 617.105 717.895 618 719 618Z" fill="#D8D8D8"/>
<path d="M735 618C736.105 618 737 617.105 737 616C737 614.895 736.105 614 735 614C733.895 614 733 614.895 733 616C733 617.105 733.895 618 735 618Z" fill="#D8D8D8"/>
<path d="M751 618C752.105 618 753 617.105 753 616C753 614.895 752.105 614 751 614C749.895 614 749 614.895 749 616C749 617.105 749.895 618 751 618Z" fill="#D8D8D8"/>
<path d="M671 602C672.105 602 673 601.105 673 600C673 598.895 672.105 598 671 598C669.895 598 669 598.895 669 600C669 601.105 669.895 602 671 602Z" fill="#D8D8D8"/>
<path d="M687 602C688.105 602 689 601.105 689 600C689 598.895 688.105 598 687 598C685.895 598 685 598.895 685 600C685 601.105 685.895 602 687 602Z" fill="#D8D8D8"/>
<path d="M703 602C704.105 602 705 601.105 705 600C705 598.895 704.105 598 703 598C701.895 598 701 598.895 701 600C701 601.105 701.895 602 703 602Z" fill="#D8D8D8"/>
<path d="M719 602C720.105 602 721 601.105 721 600C721 598.895 720.105 598 719 598C717.895 598 717 598.895 717 600C717 601.105 717.895 602 719 602Z" fill="#D8D8D8"/>
<path d="M735 602C736.105 602 737 601.105 737 600C737 598.895 736.105 598 735 598C733.895 598 733 598.895 733 600C733 601.105 733.895 602 735 602Z" fill="#D8D8D8"/>
<path d="M751 602C752.105 602 753 601.105 753 600C753 598.895 752.105 598 751 598C749.895 598 749 598.895 749 600C749 601.105 749.895 602 751 602Z" fill="#D8D8D8"/>
<path d="M687 570C688.105 570 689 569.105 689 568C689 566.895 688.105 566 687 566C685.895 566 685 566.895 685 568C685 569.105 685.895 570 687 570Z" fill="#D8D8D8"/>
<path d="M772 618C773.105 618 774 617.105 774 616C774 614.895 773.105 614 772 614C770.895 614 770 614.895 770 616C770 617.105 770.895 618 772 618Z" fill="#D8D8D8"/>
<path d="M788 618C789.105 618 790 617.105 790 616C790 614.895 789.105 614 788 614C786.895 614 786 614.895 786 616C786 617.105 786.895 618 788 618Z" fill="#D8D8D8"/>
<path d="M804 618C805.105 618 806 617.105 806 616C806 614.895 805.105 614 804 614C802.895 614 802 614.895 802 616C802 617.105 802.895 618 804 618Z" fill="#D8D8D8"/>
<path d="M820 618C821.105 618 822 617.105 822 616C822 614.895 821.105 614 820 614C818.895 614 818 614.895 818 616C818 617.105 818.895 618 820 618Z" fill="#D8D8D8"/>
<path d="M836 618C837.105 618 838 617.105 838 616C838 614.895 837.105 614 836 614C834.895 614 834 614.895 834 616C834 617.105 834.895 618 836 618Z" fill="#D8D8D8"/>
<path d="M852 618C853.105 618 854 617.105 854 616C854 614.895 853.105 614 852 614C850.895 614 850 614.895 850 616C850 617.105 850.895 618 852 618Z" fill="#D8D8D8"/>
<path d="M772 602C773.105 602 774 601.105 774 600C774 598.895 773.105 598 772 598C770.895 598 770 598.895 770 600C770 601.105 770.895 602 772 602Z" fill="#D8D8D8"/>
<path d="M788 602C789.105 602 790 601.105 790 600C790 598.895 789.105 598 788 598C786.895 598 786 598.895 786 600C786 601.105 786.895 602 788 602Z" fill="#D8D8D8"/>
<path d="M804 602C805.105 602 806 601.105 806 600C806 598.895 805.105 598 804 598C802.895 598 802 598.895 802 600C802 601.105 802.895 602 804 602Z" fill="#D8D8D8"/>
<path d="M820 602C821.105 602 822 601.105 822 600C822 598.895 821.105 598 820 598C818.895 598 818 598.895 818 600C818 601.105 818.895 602 820 602Z" fill="#D8D8D8"/>
<path d="M836 602C837.105 602 838 601.105 838 600C838 598.895 837.105 598 836 598C834.895 598 834 598.895 834 600C834 601.105 834.895 602 836 602Z" fill="#D8D8D8"/>
<path d="M852 602C853.105 602 854 601.105 854 600C854 598.895 853.105 598 852 598C850.895 598 850 598.895 850 600C850 601.105 850.895 602 852 602Z" fill="#D8D8D8"/>
<path d="M703 570C704.105 570 705 569.105 705 568C705 566.895 704.105 566 703 566C701.895 566 701 566.895 701 568C701 569.105 701.895 570 703 570Z" fill="#D8D8D8"/>
<path d="M719 570C720.105 570 721 569.105 721 568C721 566.895 720.105 566 719 566C717.895 566 717 566.895 717 568C717 569.105 717.895 570 719 570Z" fill="#D8D8D8"/>
<path d="M735 570C736.105 570 737 569.105 737 568C737 566.895 736.105 566 735 566C733.895 566 733 566.895 733 568C733 569.105 733.895 570 735 570Z" fill="#D8D8D8"/>
<path d="M751 570C752.105 570 753 569.105 753 568C753 566.895 752.105 566 751 566C749.895 566 749 566.895 749 568C749 569.105 749.895 570 751 570Z" fill="#D8D8D8"/>
<path fill-rule="evenodd" clip-rule="evenodd" d="M418.02 61.5418C483.719 74.7962 552.57 72.708 604.103 112.115C660.373 155.145 702.305 214.737 705.763 281.577C709.363 351.172 671.498 414.283 622.504 467.796C567.433 527.946 503.918 599.607 418.02 595.859C333.307 592.163 297.255 500.354 232.233 450.768C154.438 391.442 27.918 371.78 5.89993 281.577C-17.8414 184.314 31.6416 66.0595 126.026 15.6664C214.603 -31.6254 317.773 41.3177 418.02 61.5418Z" fill="#E9FCF3"/>
</svg>
